<svg viewBox="0 0 24 24" fill="none" xmlns="http://www.w3.org/2000/svg">
<path d="M8.60449 11.3999C8.60449 10.6679 9.14449 10.0679 9.82849 10.0679C10.5125 10.0679 11.0645 10.6679 11.0525 11.3999C11.0525 12.1319 10.5125 12.7319 9.82849 12.7319C9.15649 12.7319 8.60449 12.1319 8.60449 11.3999Z" fill="currentColor"/>
<path d="M12.9845 11.3999C12.9845 10.6679 13.5245 10.0679 14.2085 10.0679C14.8925 10.0679 15.4325 10.6679 15.4325 11.3999C15.4325 12.1319 14.8925 12.7319 14.2085 12.7319C13.5365 12.7319 12.9845 12.1319 12.9845 11.3999Z" fill="currentColor"/>
<path fill-rule="evenodd" clip-rule="evenodd" d="M3.96 0H20.04C21.396 0 22.5 1.104 22.5 2.472V24L19.92 21.72L18.468 20.376L16.932 18.948L17.568 21.168H3.96C2.604 21.168 1.5 20.064 1.5 18.696V2.472C1.5 1.104 2.604 0 3.96 0ZM14.616 14.7C14.976 15.156 15.408 15.672 15.408 15.672C18.06 15.588 19.08 13.848 19.08 13.848C19.08 9.984 17.352 6.852 17.352 6.852C15.624 5.556 13.98 5.592 13.98 5.592L13.812 5.784C15.852 6.408 16.8 7.308 16.8 7.308C15.552 6.624 14.328 6.288 13.188 6.156C12.324 6.06 11.496 6.084 10.764 6.18C10.7011 6.18 10.6474 6.18915 10.5869 6.19945C10.5781 6.20095 10.5691 6.20248 10.56 6.204C10.14 6.24 9.12 6.396 7.836 6.96C7.392 7.164 7.128 7.308 7.128 7.308C7.128 7.308 8.124 6.36 10.284 5.736L10.164 5.592C10.164 5.592 8.52 5.556 6.792 6.852C6.792 6.852 5.064 9.984 5.064 13.848C5.064 13.848 6.072 15.588 8.724 15.672C8.724 15.672 9.168 15.132 9.528 14.676C8.004 14.22 7.428 13.26 7.428 13.26C7.428 13.26 7.548 13.344 7.764 13.464C7.776 13.476 7.788 13.488 7.812 13.5C7.83 13.512 7.848 13.521 7.866 13.53C7.884 13.539 7.902 13.548 7.92 13.56C8.22 13.728 8.52 13.86 8.796 13.968C9.288 14.16 9.876 14.352 10.56 14.484C11.46 14.652 12.516 14.712 13.668 14.496C14.232 14.4 14.808 14.232 15.408 13.98C15.828 13.824 16.296 13.596 16.788 13.272C16.788 13.272 16.188 14.256 14.616 14.7Z" fill="currentColor"/>
</svg>
