<svg viewBox="0 0 24 24" fill="none" xmlns="http://www.w3.org/2000/svg">
<path fill-rule="evenodd" clip-rule="evenodd" d="M21.3904 4.1141C22.4184 4.39087 23.2289 5.20141 23.5057 6.22941C24.0197 8.10749 23.9999 12.0218 23.9999 12.0218C23.9999 12.0218 23.9999 15.9164 23.5057 17.7944C23.2289 18.8224 22.4184 19.633 21.3904 19.9097C19.5123 20.404 11.9999 20.404 11.9999 20.404C11.9999 20.404 4.50739 20.404 2.60954 19.89C1.58154 19.6132 0.771002 18.8027 0.494232 17.7747C0 15.9164 0 12.002 0 12.002C0 12.002 0 8.10749 0.494232 6.22941C0.771002 5.20141 1.60131 4.3711 2.60954 4.09433C4.48762 3.6001 11.9999 3.6001 11.9999 3.6001C11.9999 3.6001 19.5123 3.6001 21.3904 4.1141ZM15.855 12.0018L9.60791 15.5998V8.40381L15.855 12.0018Z" fill="currentColor"/>
</svg>
