<svg viewBox="0 0 24 24" fill="currentColor" xmlns="http://www.w3.org/2000/svg">
<path d="M23.6562 18.4351C19.4482 16.3981 18.7775 13.253 18.7476 13.0197C18.7115 12.7371 18.6706 12.5149 18.9823 12.2275C19.2829 11.9498 20.6166 11.1243 20.9867 10.866C21.5984 10.4383 21.8677 10.0113 21.6692 9.48647C21.5303 9.12336 21.1922 8.98658 20.836 8.98658C20.7237 8.98693 20.6117 8.9995 20.5021 9.02407C19.83 9.16987 19.1774 9.5066 18.7997 9.59755C18.7543 9.60926 18.7077 9.61555 18.6608 9.6163C18.4595 9.6163 18.3831 9.52674 18.4026 9.28443C18.4498 8.54988 18.5497 7.11618 18.4338 5.7769C18.2748 3.93427 17.6805 3.02128 16.9758 2.21383C16.6349 1.82225 15.0519 0.139999 11.9971 0.139999C8.94223 0.139999 7.36134 1.82225 7.02253 2.20897C6.31575 3.01642 5.72214 3.92941 5.56453 5.77204C5.44859 7.11132 5.55273 8.54432 5.59578 9.27957C5.60966 9.51007 5.53885 9.61144 5.3375 9.61144C5.29064 9.61064 5.24404 9.60435 5.19865 9.59269C4.82165 9.50174 4.16902 9.16501 3.49695 9.01921C3.38733 8.99464 3.27535 8.98207 3.163 8.98172C2.80545 8.98172 2.46872 9.12058 2.32986 9.48161C2.13129 10.0065 2.39929 10.4335 3.01304 10.8612C3.38309 11.1194 4.71681 11.9442 5.01744 12.2226C5.32848 12.5101 5.28821 12.7323 5.25211 13.0148C5.22225 13.2516 4.55088 16.3967 0.34351 18.4303C0.0970387 18.5497 -0.32231 18.8024 0.417104 19.2106C1.57795 19.8521 2.35069 19.7834 2.95124 20.1701C3.46085 20.4985 3.15953 21.2067 3.53028 21.4622C3.98573 21.7767 5.33195 21.44 7.07113 22.0142C8.52913 22.4946 9.41504 23.8519 12.0006 23.8519C14.5861 23.8519 15.4977 22.4883 16.93 22.0142C18.6657 21.44 20.0147 21.7767 20.4708 21.4622C20.8409 21.2067 20.5403 20.4985 21.0499 20.1701C21.6504 19.7834 22.4225 19.8521 23.584 19.2106C24.322 18.8072 23.9027 18.5545 23.6562 18.4351Z" fill="currentColor"/>
</svg>
