<svg viewBox="0 0 24 24" fill="currentColor" xmlns="http://www.w3.org/2000/svg">
<path d="M7.54752 21.7512C16.6042 21.7512 21.5578 14.2479 21.5578 7.74101C21.5578 7.52789 21.5578 7.31573 21.5434 7.10453C22.507 6.40748 23.3389 5.54441 24 4.55573C23.1013 4.95394 22.148 5.21508 21.1718 5.33045C22.1998 4.71507 22.9691 3.74719 23.3366 2.60693C22.3701 3.18049 21.3126 3.5847 20.2099 3.80213C19.4675 3.01271 18.4856 2.48997 17.4162 2.31481C16.3468 2.13966 15.2494 2.32184 14.294 2.83318C13.3385 3.34452 12.5782 4.1565 12.1307 5.14348C11.6833 6.13045 11.5735 7.23739 11.8186 8.29301C9.86088 8.19486 7.94572 7.68613 6.19741 6.79981C4.4491 5.9135 2.90672 4.66943 1.6704 3.14837C1.04073 4.23236 0.847872 5.5156 1.1311 6.73679C1.41433 7.95798 2.15234 9.02532 3.19488 9.72149C2.41127 9.69826 1.64475 9.48688 0.96 9.10517C0.96 9.12533 0.96 9.14645 0.96 9.16757C0.960311 10.3044 1.35385 11.4062 2.07387 12.2859C2.79389 13.1657 3.79606 13.7693 4.9104 13.9944C4.18547 14.1921 3.42488 14.2211 2.68704 14.0789C3.00169 15.0573 3.61427 15.9129 4.43911 16.526C5.26395 17.1392 6.25979 17.4791 7.28736 17.4984C5.54375 18.8688 3.38982 19.6127 1.17216 19.6104C0.780387 19.6097 0.388996 19.586 0 19.5394C2.25181 20.9845 4.87192 21.751 7.54752 21.7474" fill="currentColor"/>
</svg>
