<svg viewBox="0 0 14 14" fill="currentColor" xmlns="http://www.w3.org/2000/svg">
<path d="M0.583374 2.28667C0.583374 2.07402 0.583374 2.02437 0.603413 1.93641C0.671904 1.63579 0.906659 1.40103 1.20729 1.33254C1.29525 1.3125 1.40157 1.3125 1.61422 1.3125H12.3859C12.5985 1.3125 12.7048 1.3125 12.7928 1.33254C13.0934 1.40103 13.3282 1.63579 13.3967 1.93641C13.4167 2.02437 13.4167 2.13068 13.4167 2.34331C13.4167 2.48866 13.4167 2.52861 13.4103 2.56738C13.4079 2.58202 13.4045 2.59651 13.4 2.61647C13.3989 2.62096 13.3978 2.62573 13.3967 2.63083C13.3282 2.93146 13.0934 3.16901 12.7928 3.2375C12.7142 3.25541 12.6209 3.25528 12.4502 3.25506H1.54992C1.37918 3.25528 1.2859 3.25541 1.20729 3.2375C0.906659 3.16901 0.671904 2.93146 0.603413 2.63083C0.583374 2.54288 0.583374 2.49932 0.583374 2.28667Z" fill="currentColor"/>
<path d="M0.583374 11.7191C0.583374 11.5065 0.583374 11.4568 0.603413 11.3689C0.671904 11.0682 0.906659 10.8335 1.20729 10.765C1.29525 10.745 1.40157 10.745 1.61422 10.745H12.3859C12.5985 10.745 12.7048 10.745 12.7928 10.765C13.0934 10.8335 13.3282 11.0682 13.3967 11.3689C13.4167 11.4568 13.4167 11.5631 13.4167 11.7758C13.4167 11.9211 13.4167 11.9611 13.4103 11.9998C13.4079 12.0145 13.4045 12.029 13.4 12.0489C13.3989 12.0534 13.3978 12.0582 13.3967 12.0633C13.3282 12.3639 13.0934 12.6015 12.7928 12.67C12.7142 12.6879 12.6209 12.6877 12.4502 12.6875H1.54993C1.3792 12.6877 1.28589 12.6879 1.20729 12.67C0.906659 12.6015 0.671904 12.3639 0.603413 12.0633C0.583374 11.9753 0.583374 11.9318 0.583374 11.7191Z" fill="currentColor"/>
<path d="M0.603413 6.64979C0.583374 6.73775 0.583374 6.7874 0.583374 7.00005C0.583374 7.21269 0.583374 7.25625 0.603413 7.34421C0.671904 7.64484 0.906659 7.88239 1.20729 7.95088C1.2859 7.96879 1.37918 7.96866 1.54992 7.96843C1.57022 7.96841 1.59162 7.96838 1.61422 7.96838H12.3859C12.4085 7.96838 12.4299 7.96841 12.4502 7.96843C12.6209 7.96866 12.7142 7.96879 12.7928 7.95088C13.0934 7.88239 13.3282 7.64484 13.3967 7.34421C13.403 7.3164 13.4073 7.2987 13.4103 7.28076C13.4167 7.24198 13.4167 7.20214 13.4167 7.05672C13.4167 6.8441 13.4167 6.73774 13.3967 6.64979C13.3282 6.34916 13.0934 6.11441 12.7928 6.04592C12.7048 6.02588 12.5985 6.02588 12.3859 6.02588H1.61422C1.40157 6.02588 1.29525 6.02588 1.20729 6.04592C0.906659 6.11441 0.671904 6.34916 0.603413 6.64979Z" fill="currentColor"/>
</svg>
