<svg viewBox="0 0 14 15" fill="currentColor" xmlns="http://www.w3.org/2000/svg">
<path fill-rule="evenodd" clip-rule="evenodd" d="M6.43605 11.369C6.76067 11.7045 7.28699 11.7045 7.61161 11.369L11.7678 7.07375C12.0925 6.73827 12.0925 6.19433 11.7678 5.85885C11.4432 5.52337 10.917 5.52337 10.5923 5.85885L7.85508 8.68766V1.02557C7.85508 0.551124 7.48291 0.166504 7.02383 0.166504C6.56475 0.166504 6.19258 0.551124 6.19258 1.02557V8.68766L3.45536 5.85885C3.13074 5.52337 2.60441 5.52337 2.2798 5.85885C1.95518 6.19433 1.95518 6.73827 2.2798 7.07375L6.43605 11.369ZM1.49775 13.115C1.03867 13.115 0.666504 13.4997 0.666504 13.9741C0.666504 14.4485 1.03867 14.8332 1.49775 14.8332H12.5019C12.961 14.8332 13.3332 14.4485 13.3332 13.9741C13.3332 13.4997 12.961 13.115 12.5019 13.115H1.49775Z" fill="#3B82F6"/>
</svg>
