<svg width="77" height="21" viewBox="0 0 77 21" fill="none" xmlns="http://www.w3.org/2000/svg">
<path fill-rule="evenodd" clip-rule="evenodd" d="M13.7152 7.09324L13.6297 7.04337L13.615 7.03485C13.5643 7.00547 13.4992 6.96771 13.4301 6.92826C13.2789 6.84185 13.1062 6.74552 13.0283 6.71068C12.8624 6.63691 12.7217 6.67482 12.5855 6.74826C12.5 6.79471 12.4128 6.85073 12.3386 6.89923L12.2654 6.94807C12.2248 6.9754 12.1921 6.99726 12.1707 7.01024L12.1492 7.0239L9.69711 8.66343C9.40184 8.85778 9.19954 8.95308 8.97987 8.95991C8.7602 8.96674 8.51396 8.88408 8.13354 8.70647L2.78655 6.16076C2.62103 6.074 2.5696 5.94386 2.5822 5.82363C2.59 5.76143 2.61265 5.70202 2.64822 5.65047C2.6838 5.59892 2.73125 5.55673 2.78655 5.52749L8.18122 2.36389C8.43223 2.20301 8.67642 2.12923 8.91686 2.1323C9.1573 2.13538 9.39775 2.21394 9.63819 2.36389L16.167 6.22361C16.1768 6.22911 16.1864 6.23515 16.1956 6.24171C16.3 6.31559 16.3857 6.41301 16.4458 6.52613C16.5059 6.63926 16.5387 6.76494 16.5416 6.89308V6.89479C16.5423 6.90525 16.5423 6.91575 16.5416 6.92621L15.9906 14.4872C15.9906 14.9401 15.6285 15.2612 15.1688 15.2612C15.1688 15.2612 9.97879 15.6509 9.67872 15.6611C9.39567 15.6708 9.19681 15.7086 9.04662 15.779C8.93275 15.8357 8.82655 15.9068 8.73057 15.9904L8.69038 16.0229C8.69038 16.0229 8.00694 16.556 7.23717 17.3003L7.22705 17.3101L7.21594 17.3209C7.08687 17.4462 6.78579 17.7384 6.64117 17.7686C6.50222 17.7976 6.32272 17.7365 6.24949 17.62C6.16759 17.4904 6.11199 17.3065 6.05805 17.1282L6.05803 17.1281L6.05801 17.128L6.05799 17.128L6.05779 17.1273C6.04744 17.0931 6.03716 17.0591 6.02676 17.0257C5.97207 16.85 5.94115 16.7363 5.91295 16.6327L5.91294 16.6327L5.91293 16.6327L5.91292 16.6326L5.91291 16.6326L5.91291 16.6326C5.89037 16.5498 5.86958 16.4733 5.83978 16.3767C5.77269 16.1591 5.69504 15.9887 5.49104 15.7933C5.3027 15.6263 5.08235 15.5775 4.75063 15.5416C4.75063 15.5416 3.25211 15.3425 3.07501 15.3025L3.05569 15.2981C2.88031 15.2587 2.64572 15.2059 2.51307 15.089C2.37548 14.9678 2.28182 14.7741 2.25117 14.4916L1.93477 10.7173C1.93205 10.6831 1.92967 10.6517 1.92762 10.6192V10.6141C1.92713 10.6067 1.92665 10.5992 1.92618 10.5918L1.92618 10.5918C1.92469 10.5685 1.92322 10.5454 1.92115 10.5226C1.91693 10.4598 1.9055 10.3976 1.88709 10.3375C1.84759 10.2159 1.76517 10.113 1.59046 10.0372L0.620504 9.57986C0.564744 9.54956 0.501771 9.53516 0.438426 9.53823C0.375081 9.5413 0.313786 9.56172 0.2612 9.59728C0.233931 9.62022 0.211753 9.64864 0.196092 9.6807C0.180431 9.71277 0.171634 9.74776 0.170267 9.78343C0.164903 9.84499 0.163311 9.90681 0.165499 9.96856V10.04V10.068L0.472014 14.4486C0.524122 15.3968 0.791812 16.0697 1.24069 16.5127C1.68956 16.9557 2.31213 17.1275 3.07229 17.1958C3.37267 17.2221 3.69043 17.2723 3.77285 17.3003C3.77659 17.3003 3.93428 17.3512 4.02317 17.4448C4.06851 17.4871 4.10348 17.5394 4.12534 17.5975C4.15761 17.6721 4.18569 17.7485 4.20946 17.8263C4.28677 18.0866 4.53914 18.9323 4.6127 19.1731C4.69989 19.4594 4.8385 19.7453 5.07622 19.9782C5.29589 20.1937 5.70458 20.3645 6.07921 20.3475C6.45384 20.3304 6.67555 20.2337 6.97287 20.0059C7.70957 19.4462 9.18977 18.1523 9.5699 17.8201L9.57002 17.82C9.60737 17.7873 9.63408 17.764 9.64841 17.7515C9.80848 17.6125 9.95911 17.5359 10.1794 17.5244C11.3922 17.4612 13.2203 17.3481 15.1671 17.1938C16.1261 17.1196 16.9013 16.8805 17.3249 16.3781C17.7486 15.8756 17.9039 15.2034 17.9039 14.4916C17.9037 14.4885 17.9037 14.4855 17.9039 14.4824L18.4587 6.93373V6.92314V6.89342C18.4519 6.0395 17.8947 5.24399 17.1945 4.76443L17.1649 4.74598L10.4089 0.788575C9.98212 0.502777 9.48069 0.349732 8.96751 0.348639C8.45433 0.347545 7.95225 0.49845 7.52426 0.782426L7.50621 0.793015L0.688619 4.65683L0.654562 4.67733C-0.346042 5.36047 -0.157024 6.82477 0.932469 7.35659L7.78241 10.6271C8.66758 11.108 9.43387 11.0739 10.3704 10.4078L14.0953 8.04075C14.1934 7.98592 14.2763 7.90752 14.3367 7.81258C14.3663 7.76358 14.3816 7.70727 14.381 7.65C14.378 7.58518 14.3541 7.5231 14.3129 7.47306L14.2948 7.44847C14.2854 7.43532 14.2739 7.42379 14.2608 7.41431L14.1957 7.37094L14.1879 7.36615L13.7166 7.0929L13.7152 7.09324ZM41.507 7.75156C38.907 7.75156 38.2982 8.88759 38.2982 11.5745V15.4393C38.2982 15.5319 38.2615 15.6208 38.1962 15.6863C38.131 15.7518 38.0424 15.7886 37.9501 15.7886H36.376C36.3302 15.7887 36.2849 15.7797 36.2426 15.7622C36.2004 15.7447 36.1619 15.7189 36.1296 15.6865C36.0972 15.6541 36.0715 15.6155 36.054 15.5731C36.0365 15.5307 36.0274 15.4852 36.0274 15.4393V5.81563C36.0274 5.7697 36.0365 5.72423 36.054 5.68181C36.0715 5.63939 36.0972 5.60085 36.1296 5.5684C36.1619 5.53596 36.2004 5.51023 36.2426 5.49271C36.2849 5.47518 36.3302 5.4662 36.376 5.46627H37.9087C38.001 5.46627 38.0895 5.50308 38.1548 5.56859C38.22 5.63411 38.2567 5.72297 38.2567 5.81563V6.69536C38.2567 6.92923 38.4552 6.91537 38.593 6.67791C39.3141 5.43539 40.753 5.33657 41.5709 5.34245C41.6194 5.34349 41.6672 5.35474 41.7111 5.37549C41.755 5.39623 41.794 5.426 41.8258 5.46286C41.8575 5.49972 41.8811 5.54286 41.8951 5.58947C41.9092 5.63609 41.9133 5.68515 41.9073 5.73347L41.722 7.55926C41.7167 7.61252 41.6917 7.66183 41.6519 7.69744C41.612 7.73305 41.5604 7.75237 41.507 7.75156ZM52.5235 14.0789C52.5092 14.0947 52.5012 14.1152 52.5011 14.1366V15.4386C52.5011 15.4845 52.5102 15.5299 52.5277 15.5723C52.5453 15.6147 52.571 15.6532 52.6034 15.6856C52.6358 15.7181 52.6743 15.7438 52.7167 15.7613C52.759 15.7788 52.8044 15.7878 52.8502 15.7877H60.7782C60.8239 15.7877 60.8693 15.7787 60.9115 15.7611C60.9538 15.7436 60.9923 15.7179 61.0246 15.6854C61.057 15.653 61.0827 15.6145 61.1002 15.5722C61.1177 15.5298 61.1267 15.4844 61.1267 15.4386V14.1456C61.1267 14.053 61.09 13.9642 61.0246 13.8988C60.9593 13.8333 60.8706 13.7965 60.7782 13.7965H55.5892C55.5723 13.7966 55.5558 13.7918 55.5417 13.7827C55.5275 13.7735 55.5163 13.7605 55.5095 13.7451C55.5026 13.7297 55.5003 13.7127 55.5029 13.696C55.5055 13.6794 55.5129 13.6638 55.5241 13.6513L61.0383 7.36626C61.0949 7.3024 61.1262 7.21998 61.1262 7.13457V5.84003C61.1262 5.74744 61.0895 5.65864 61.0241 5.59317C60.9588 5.52769 60.8701 5.49091 60.7777 5.49091H53.056C52.9636 5.49091 52.8749 5.52769 52.8095 5.59317C52.7442 5.65864 52.7074 5.74744 52.7074 5.84003V7.22479C52.7074 7.31739 52.7442 7.40619 52.8095 7.47166C52.8749 7.53714 52.9636 7.57392 53.056 7.57392H58.0382C58.055 7.57383 58.0715 7.57865 58.0857 7.58777C58.0998 7.5969 58.111 7.60994 58.1179 7.62532C58.1248 7.6407 58.1271 7.65775 58.1245 7.6744C58.1218 7.69105 58.1145 7.70659 58.1032 7.71912L52.5235 14.0789ZM65.1547 1.72077C65.2477 1.72077 65.337 1.75752 65.4027 1.82292C65.4685 1.88833 65.5054 1.97704 65.5054 2.06954L65.5054 15.4445C65.5054 15.4914 65.4958 15.5378 65.4774 15.5809C65.4589 15.6241 65.4318 15.6631 65.3978 15.6956C65.3638 15.7281 65.3236 15.7534 65.2795 15.7701C65.2354 15.7868 65.1884 15.7945 65.1413 15.7927H63.5556C63.4649 15.7892 63.379 15.751 63.3161 15.686C63.2531 15.621 63.2178 15.5342 63.2178 15.4439L63.2178 2.06954C63.2178 2.02369 63.2269 1.9783 63.2445 1.93595C63.2622 1.8936 63.2881 1.85513 63.3207 1.82274C63.3533 1.79034 63.392 1.76467 63.4347 1.74717C63.4773 1.72967 63.5229 1.7207 63.569 1.72077H65.1547ZM74.6442 5.52278C74.585 5.56483 74.5405 5.62425 74.5168 5.69276L72.3196 12.0487C72.3138 12.0657 72.303 12.0805 72.2885 12.0911C72.274 12.1017 72.2565 12.1075 72.2386 12.1078C72.2207 12.1081 72.2031 12.1028 72.1882 12.0927C72.1734 12.0826 72.162 12.0682 72.1557 12.0514L69.2832 5.68529C69.2579 5.61917 69.2132 5.56227 69.1549 5.52209C69.0965 5.48192 69.0274 5.46036 68.9566 5.46027H67.2919C67.2348 5.46035 67.1785 5.47446 67.1281 5.50134C67.0777 5.52822 67.0346 5.56706 67.0028 5.61445C66.9709 5.66183 66.9511 5.71632 66.9452 5.77311C66.9394 5.82991 66.9475 5.88728 66.969 5.94018L71.0746 14.8845C71.0751 14.8856 71.0757 14.887 71.0765 14.8887L71.0787 14.8934C71.0861 14.9095 71.0991 14.9378 71.0991 14.9472C71.0991 14.9589 71.0369 15.1482 70.8573 15.6472C70.6777 16.1461 70.3669 16.8379 69.7433 16.877C69.2854 16.9056 69.0336 16.8183 68.6427 16.5805C68.5568 16.5283 68.4947 16.5112 68.3988 16.5277C68.2946 16.5457 68.2629 16.5975 68.221 16.6662L68.2173 16.6723L68.2143 16.677C68.1485 16.7842 68.0314 16.9573 67.9067 17.1417L67.9066 17.1418L67.9065 17.1419C67.7379 17.3912 67.5553 17.6611 67.4667 17.8166C67.4309 17.8794 67.422 17.9753 67.4544 18.068C67.4868 18.161 67.5373 18.2053 67.6209 18.257C68.2529 18.6478 68.9739 18.9821 69.8123 18.972C71.3824 18.9531 72.2271 18.0117 73.0171 15.9422L76.7898 5.93165C76.8101 5.87882 76.8172 5.82186 76.8105 5.76568C76.8038 5.70951 76.7836 5.6558 76.7515 5.60919C76.7194 5.56259 76.6764 5.52448 76.6263 5.49816C76.5762 5.47185 76.5204 5.45811 76.4638 5.45813H74.8466C74.774 5.45813 74.7033 5.48073 74.6442 5.52278ZM34.6222 10.6363C34.6222 14.0037 32.6045 15.9118 30.2335 15.9118C28.719 15.9118 27.7201 15.1913 27.0279 14.3408C27.0161 14.3271 27.0005 14.3173 26.9831 14.3125C26.9656 14.3077 26.9472 14.3082 26.93 14.3139C26.9129 14.3196 26.8978 14.3303 26.8867 14.3446C26.8757 14.3588 26.8691 14.376 26.8678 14.394V18.6243C26.8678 18.67 26.8588 18.7153 26.8413 18.7576C26.8237 18.7998 26.798 18.8382 26.7656 18.8706C26.7332 18.9029 26.6947 18.9286 26.6524 18.9461C26.61 18.9636 26.5647 18.9726 26.5188 18.9726H24.9382C24.8924 18.9726 24.847 18.9636 24.8046 18.9461C24.7623 18.9286 24.7238 18.9029 24.6914 18.8706C24.659 18.8382 24.6333 18.7998 24.6158 18.7576C24.5982 18.7153 24.5892 18.67 24.5892 18.6243V5.81517C24.5892 5.7228 24.626 5.63421 24.6914 5.56889C24.7569 5.50358 24.8456 5.46688 24.9382 5.46688H26.5167C26.6093 5.46688 26.698 5.50358 26.7635 5.56889C26.8289 5.63421 26.8657 5.7228 26.8657 5.81517V6.97608C26.8664 6.99482 26.8728 7.01289 26.8842 7.02785C26.8955 7.04281 26.9111 7.05395 26.929 7.05976C26.9469 7.06556 26.9661 7.06576 26.9841 7.06032C27.002 7.05488 27.0179 7.04407 27.0295 7.02934C27.7521 6.08406 28.75 5.35979 30.2314 5.35979C32.5853 5.36085 34.6222 7.269 34.6222 10.6363ZM29.8194 7.3835C31.2997 7.3835 32.5452 8.64618 32.5452 10.6363C32.5452 12.6451 31.3179 13.8886 29.8194 13.8886C28.3391 13.8886 27.1021 12.6068 27.1021 10.6363C27.1021 8.66589 28.3417 7.36964 29.8221 7.36964L29.8194 7.3835ZM44.6423 11.4364C44.6537 11.4311 44.6662 11.4284 44.6788 11.4286L51.355 11.4296C51.5368 11.4296 51.6988 11.2905 51.774 11.1251C51.817 11.0441 51.8413 10.9544 51.8449 10.8628C51.8449 7.93145 50.3111 5.33714 47.1535 5.33714C44.313 5.33714 42.3021 7.71281 42.3021 10.6249C42.3021 13.7669 44.5199 15.949 47.396 15.949C48.53 15.949 49.5264 15.5197 50.5254 14.7476C50.5812 14.7038 50.622 14.6437 50.6421 14.5756C50.6621 14.5076 50.6605 14.435 50.6374 14.3679L50.301 13.3744C50.2184 13.1297 49.907 13.0571 49.7076 13.2208C49.0476 13.7637 48.3493 14.0511 47.4334 14.0511C45.9977 14.0511 44.6423 13.0276 44.594 11.5294C44.5917 11.517 44.5922 11.5042 44.5954 11.4921C44.5986 11.4799 44.6045 11.4686 44.6126 11.459C44.6207 11.4493 44.6308 11.4416 44.6423 11.4364ZM49.6376 9.65146C49.6413 9.63984 49.6424 9.62758 49.641 9.61548C49.4635 8.16715 48.6041 7.23288 47.1306 7.23288C45.7711 7.23288 44.8056 8.09462 44.5716 9.61282C44.5698 9.62506 44.5707 9.63753 44.5742 9.6494C44.5777 9.66126 44.5837 9.67224 44.5918 9.68159C44.5999 9.69095 44.6099 9.69845 44.6211 9.70361C44.6323 9.70876 44.6445 9.71144 44.6569 9.71147H49.5552C49.5673 9.71156 49.5794 9.70905 49.5905 9.70411C49.6017 9.69918 49.6116 9.69193 49.6197 9.68285C49.6279 9.67378 49.634 9.66307 49.6376 9.65146Z" fill="currentColor"/>
</svg>
