<svg viewBox="0 0 25 25" fill="currentColor" xmlns="http://www.w3.org/2000/svg">
<path d="M8.9717 9.08867C9.10977 9.08867 9.2217 9.2006 9.2217 9.33867V17.75C9.2217 17.8881 9.10977 18 8.9717 18H0.25C0.111929 18 0 17.8881 0 17.75V8.13547C0 3.74144 3.52201 0.137192 7.88498 0.00382466C8.02299 -0.00039394 8.13551 0.111929 8.13551 0.25V4.25C8.13551 4.38807 8.02321 4.49911 7.88546 4.50846C5.98617 4.63735 4.49996 6.22354 4.49996 8.13547V8.83867C4.49996 8.97674 4.61189 9.08867 4.74996 9.08867H8.9717Z" fill="currentColor"/>
<path d="M24.1934 9.08867C24.3314 9.08867 24.4434 9.2006 24.4434 9.33867V17.75C24.4434 17.8881 24.3314 18 24.1934 18H15.4717C15.3336 18 15.2217 17.8881 15.2217 17.75V8.13547C15.2217 3.74144 18.7437 0.137192 23.1067 0.00382466C23.2447 -0.00039394 23.3572 0.111929 23.3572 0.25V4.25C23.3572 4.38807 23.2449 4.49911 23.1071 4.50846C21.2078 4.63735 19.7216 6.22354 19.7216 8.13547V8.83867C19.7216 8.97674 19.8336 9.08867 19.9716 9.08867H24.1934Z" fill="currentColor"/>
</svg>
