<svg viewBox="0 0 24 24" fill="currentColor" xmlns="http://www.w3.org/2000/svg">
<path fill-rule="evenodd" clip-rule="evenodd" d="M21.2 4.5C21.2 5.74264 20.1702 6.75 18.9 6.75C17.6298 6.75 16.6 5.74264 16.6 4.5C16.6 3.25735 17.6298 2.25 18.9 2.25C20.1702 2.25 21.2 3.25735 21.2 4.5ZM23.5 4.5C23.5 6.98527 21.4406 9 18.9 9C17.5873 9 16.4031 8.46214 15.565 7.59942L9.55292 10.8669C9.64892 11.2289 9.7 11.6086 9.7 12C9.7 12.3914 9.64891 12.7712 9.55291 13.1332L15.565 16.4007C16.4031 15.5379 17.5873 15 18.9 15C21.4406 15 23.5 17.0147 23.5 19.5C23.5 21.9853 21.4406 24 18.9 24C16.3594 24 14.3 21.9853 14.3 19.5C14.3 19.1087 14.3511 18.729 14.447 18.3669L8.43489 15.0995C7.59682 15.9621 6.41261 16.5 5.1 16.5C2.5595 16.5 0.5 14.4853 0.5 12C0.5 9.51472 2.5595 7.5 5.1 7.5C6.41264 7.5 7.59685 8.03786 8.43494 8.90055L14.4471 5.6331C14.3511 5.27109 14.3 4.89138 14.3 4.5C14.3 2.01472 16.3594 0 18.9 0C21.4406 0 23.5 2.01472 23.5 4.5ZM21.2 19.5C21.2 20.7426 20.1702 21.75 18.9 21.75C17.6298 21.75 16.6 20.7426 16.6 19.5C16.6 18.2574 17.6298 17.25 18.9 17.25C20.1702 17.25 21.2 18.2574 21.2 19.5ZM7.4 12C7.4 13.2426 6.37026 14.25 5.1 14.25C3.82974 14.25 2.8 13.2426 2.8 12C2.8 10.7574 3.82974 9.75 5.1 9.75C6.37026 9.75 7.4 10.7574 7.4 12Z" fill="currentColor"/>
</svg>
